<svg width="650" height="704" viewBox="0 0 650 704" fill="none" xmlns="http://www.w3.org/2000/svg">
<path d="M118.106 488.976C117.54 491.679 119.273 494.328 121.976 494.894L166.022 504.11C168.725 504.675 171.375 502.943 171.94 500.24C172.506 497.537 170.773 494.887 168.07 494.322L128.918 486.13L137.11 446.978C137.675 444.275 135.943 441.625 133.24 441.06C130.537 440.494 127.887 442.227 127.322 444.93L118.106 488.976ZM513.263 228.815L120.263 485.815L125.736 494.185L518.737 237.185L513.263 228.815Z" fill="#82D1F5"/>
<path d="M574.261 494.838C576.933 494.142 578.535 491.411 577.838 488.739L566.491 445.193C565.794 442.521 563.064 440.919 560.392 441.616C557.719 442.312 556.118 445.043 556.814 447.715L566.901 486.422L528.193 496.509C525.521 497.206 523.919 499.936 524.616 502.608C525.312 505.281 528.043 506.882 530.715 506.186L574.261 494.838ZM79.4703 206.313L570.47 494.313L575.53 485.687L84.5297 197.687L79.4703 206.313Z" fill="#82D1F5"/>
<path d="M66.8949 97V85.9205L92.7827 61.9503C94.9844 59.8196 96.831 57.902 98.3224 56.1974C99.8376 54.4929 100.986 52.8239 101.767 51.1903C102.548 49.5331 102.939 47.7457 102.939 45.8281C102.939 43.6974 102.454 41.8627 101.483 40.3239C100.512 38.7614 99.1866 37.5658 97.5057 36.7372C95.8248 35.8849 93.919 35.4588 91.7884 35.4588C89.563 35.4588 87.6217 35.9086 85.9645 36.8082C84.3073 37.7079 83.0289 38.9981 82.1293 40.679C81.2296 42.3598 80.7798 44.3603 80.7798 46.6804H66.1847C66.1847 41.9219 67.2618 37.7907 69.4162 34.2869C71.5705 30.7831 74.589 28.0724 78.4716 26.1548C82.3542 24.2372 86.8286 23.2784 91.8949 23.2784C97.1032 23.2784 101.637 24.2017 105.496 26.0483C109.378 27.8712 112.397 30.4044 114.551 33.6477C116.705 36.8911 117.783 40.608 117.783 44.7983C117.783 47.5445 117.238 50.2552 116.149 52.9304C115.084 55.6056 113.178 58.5767 110.432 61.8438C107.686 65.0871 103.815 68.9815 98.8196 73.527L88.2017 83.9318V84.429H118.741V97H66.8949ZM156.446 97.9943C151.427 97.9943 146.952 97.071 143.022 95.2244C139.116 93.3778 136.015 90.8329 133.718 87.5895C131.422 84.3461 130.226 80.6293 130.132 76.4389H145.047C145.212 79.2562 146.396 81.5407 148.598 83.2926C150.799 85.0445 153.415 85.9205 156.446 85.9205C158.86 85.9205 160.991 85.3878 162.838 84.3224C164.708 83.2334 166.164 81.7301 167.206 79.8125C168.271 77.8712 168.804 75.6458 168.804 73.1364C168.804 70.5795 168.259 68.3305 167.17 66.3892C166.105 64.4479 164.625 62.9328 162.731 61.8438C160.837 60.7547 158.671 60.1984 156.233 60.1747C154.102 60.1747 152.03 60.6127 150.018 61.4886C148.029 62.3646 146.479 63.5601 145.366 65.0753L131.694 62.625L135.139 24.2727H179.599V36.8438H147.816L145.934 55.0611H146.36C147.639 53.2618 149.568 51.7704 152.149 50.5866C154.729 49.4029 157.618 48.8111 160.814 48.8111C165.193 48.8111 169.1 49.8409 172.532 51.9006C175.965 53.9602 178.676 56.7893 180.664 60.3878C182.653 63.9626 183.636 68.0819 183.612 72.7457C183.636 77.6463 182.499 82.0024 180.203 85.8139C177.93 89.6018 174.746 92.5848 170.65 94.7628C166.578 96.9171 161.843 97.9943 156.446 97.9943ZM226.154 20.8636L202.717 107.938H189.684L213.122 20.8636H226.154ZM264.942 24.2727V97H249.565V38.8679H249.139L232.484 49.3082V35.6719L250.489 24.2727H264.942ZM282.227 97V85.9205L308.115 61.9503C310.316 59.8196 312.163 57.902 313.654 56.1974C315.17 54.4929 316.318 52.8239 317.099 51.1903C317.88 49.5331 318.271 47.7457 318.271 45.8281C318.271 43.6974 317.786 41.8627 316.815 40.3239C315.844 38.7614 314.519 37.5658 312.838 36.7372C311.157 35.8849 309.251 35.4588 307.12 35.4588C304.895 35.4588 302.954 35.9086 301.297 36.8082C299.639 37.7079 298.361 38.9981 297.461 40.679C296.562 42.3598 296.112 44.3603 296.112 46.6804H281.517C281.517 41.9219 282.594 37.7907 284.748 34.2869C286.903 30.7831 289.921 28.0724 293.804 26.1548C297.686 24.2372 302.161 23.2784 307.227 23.2784C312.435 23.2784 316.969 24.2017 320.828 26.0483C324.71 27.8712 327.729 30.4044 329.883 33.6477C332.038 36.8911 333.115 40.608 333.115 44.7983C333.115 47.5445 332.57 50.2552 331.481 52.9304C330.416 55.6056 328.51 58.5767 325.764 61.8438C323.018 65.0871 319.147 68.9815 314.152 73.527L303.534 83.9318V84.429H334.074V97H282.227ZM377.033 20.8636L353.596 107.938H340.563L364.001 20.8636H377.033ZM384.18 97V85.9205L410.068 61.9503C412.27 59.8196 414.116 57.902 415.608 56.1974C417.123 54.4929 418.271 52.8239 419.052 51.1903C419.833 49.5331 420.224 47.7457 420.224 45.8281C420.224 43.6974 419.739 41.8627 418.768 40.3239C417.797 38.7614 416.472 37.5658 414.791 36.7372C413.11 35.8849 411.204 35.4588 409.074 35.4588C406.848 35.4588 404.907 35.9086 403.25 36.8082C401.592 37.7079 400.314 38.9981 399.414 40.679C398.515 42.3598 398.065 44.3603 398.065 46.6804H383.47C383.47 41.9219 384.547 37.7907 386.701 34.2869C388.856 30.7831 391.874 28.0724 395.757 26.1548C399.639 24.2372 404.114 23.2784 409.18 23.2784C414.388 23.2784 418.922 24.2017 422.781 26.0483C426.663 27.8712 429.682 30.4044 431.836 33.6477C433.991 36.8911 435.068 40.608 435.068 44.7983C435.068 47.5445 434.523 50.2552 433.434 52.9304C432.369 55.6056 430.463 58.5767 427.717 61.8438C424.971 65.0871 421.1 68.9815 416.105 73.527L405.487 83.9318V84.429H436.027V97H384.18ZM475.684 98.598C469.576 98.5743 464.32 97.071 459.917 94.0881C455.537 91.1051 452.164 86.7846 449.796 81.1264C447.452 75.4683 446.292 68.6619 446.316 60.7074C446.316 52.7765 447.488 46.0175 449.832 40.4304C452.199 34.8433 455.573 30.5937 459.952 27.6818C464.356 24.7462 469.6 23.2784 475.684 23.2784C481.768 23.2784 487 24.7462 491.38 27.6818C495.783 30.6174 499.169 34.8788 501.536 40.4659C503.904 46.0294 505.076 52.7765 505.052 60.7074C505.052 68.6856 503.868 75.5038 501.501 81.1619C499.157 86.8201 495.795 91.1406 491.415 94.1236C487.036 97.1065 481.792 98.598 475.684 98.598ZM475.684 85.8494C479.851 85.8494 483.177 83.7543 485.663 79.5639C488.148 75.3736 489.379 69.0881 489.356 60.7074C489.356 55.1913 488.788 50.5985 487.651 46.929C486.539 43.2595 484.952 40.5014 482.893 38.6548C480.857 36.8082 478.454 35.8849 475.684 35.8849C471.541 35.8849 468.227 37.9564 465.741 42.0994C463.255 46.2424 462 52.4451 461.977 60.7074C461.977 66.2945 462.533 70.9583 463.646 74.6989C464.782 78.4157 466.38 81.2093 468.44 83.0795C470.499 84.9261 472.914 85.8494 475.684 85.8494ZM516.016 97V85.9205L541.904 61.9503C544.105 59.8196 545.952 57.902 547.444 56.1974C548.959 54.4929 550.107 52.8239 550.888 51.1903C551.669 49.5331 552.06 47.7457 552.06 45.8281C552.06 43.6974 551.575 41.8627 550.604 40.3239C549.633 38.7614 548.308 37.5658 546.627 36.7372C544.946 35.8849 543.04 35.4588 540.909 35.4588C538.684 35.4588 536.743 35.9086 535.086 36.8082C533.428 37.7079 532.15 38.9981 531.25 40.679C530.351 42.3598 529.901 44.3603 529.901 46.6804H515.306C515.306 41.9219 516.383 37.7907 518.537 34.2869C520.692 30.7831 523.71 28.0724 527.593 26.1548C531.475 24.2372 535.95 23.2784 541.016 23.2784C546.224 23.2784 550.758 24.2017 554.617 26.0483C558.499 27.8712 561.518 30.4044 563.672 33.6477C565.827 36.8911 566.904 40.608 566.904 44.7983C566.904 47.5445 566.359 50.2552 565.27 52.9304C564.205 55.6056 562.299 58.5767 559.553 61.8438C556.807 65.0871 552.936 68.9815 547.941 73.527L537.323 83.9318V84.429H567.863V97H516.016ZM610.645 24.2727V97H595.268V38.8679H594.842L578.188 49.3082V35.6719L596.192 24.2727H610.645Z" fill="#006CA9"/>
<path d="M42.267 195.136C37.7216 195.136 33.7088 193.988 30.2287 191.692C26.7486 189.372 24.026 186.105 22.0611 181.891C20.0961 177.653 19.1136 172.646 19.1136 166.869C19.1136 161.14 20.0961 156.169 22.0611 151.955C24.026 147.741 26.7604 144.485 30.2642 142.189C33.768 139.893 37.8163 138.744 42.4091 138.744C45.9602 138.744 48.7656 139.336 50.8253 140.52C52.9086 141.68 54.4948 143.006 55.5838 144.497C56.6965 145.965 57.5606 147.172 58.1761 148.119H58.8864V121.273H67.267V194H59.1705V185.619H58.1761C57.5606 186.614 56.6847 187.868 55.5483 189.384C54.4119 190.875 52.7902 192.213 50.6832 193.396C48.5762 194.556 45.7708 195.136 42.267 195.136ZM43.4034 187.608C46.7652 187.608 49.6061 186.732 51.9261 184.98C54.2462 183.205 56.0099 180.754 57.2173 177.629C58.4247 174.481 59.0284 170.847 59.0284 166.727C59.0284 162.655 58.4366 159.092 57.2528 156.038C56.0691 152.961 54.3172 150.57 51.9972 148.865C49.6771 147.137 46.8125 146.273 43.4034 146.273C39.8523 146.273 36.893 147.184 34.5256 149.007C32.1818 150.806 30.4181 153.257 29.2344 156.358C28.0743 159.436 27.4943 162.892 27.4943 166.727C27.4943 170.61 28.0862 174.137 29.2699 177.31C30.4773 180.458 32.2528 182.968 34.5966 184.838C36.964 186.685 39.8996 187.608 43.4034 187.608ZM104.376 195.136C99.831 195.136 95.8182 193.988 92.3381 191.692C88.858 189.372 86.1354 186.105 84.1705 181.891C82.2055 177.653 81.223 172.646 81.223 166.869C81.223 161.14 82.2055 156.169 84.1705 151.955C86.1354 147.741 88.8698 144.485 92.3736 142.189C95.8774 139.893 99.9257 138.744 104.518 138.744C108.07 138.744 110.875 139.336 112.935 140.52C115.018 141.68 116.604 143.006 117.693 144.497C118.806 145.965 119.67 147.172 120.286 148.119H120.996V121.273H129.376V194H121.28V185.619H120.286C119.67 186.614 118.794 187.868 117.658 189.384C116.521 190.875 114.9 192.213 112.793 193.396C110.686 194.556 107.88 195.136 104.376 195.136ZM105.513 187.608C108.875 187.608 111.715 186.732 114.036 184.98C116.356 183.205 118.119 180.754 119.327 177.629C120.534 174.481 121.138 170.847 121.138 166.727C121.138 162.655 120.546 159.092 119.362 156.038C118.179 152.961 116.427 150.57 114.107 148.865C111.786 147.137 108.922 146.273 105.513 146.273C101.962 146.273 99.0024 147.184 96.6349 149.007C94.2912 150.806 92.5275 153.257 91.3438 156.358C90.1837 159.436 89.6037 162.892 89.6037 166.727C89.6037 170.61 90.1955 174.137 91.3793 177.31C92.5866 180.458 94.3622 182.968 96.706 184.838C99.0734 186.685 102.009 187.608 105.513 187.608ZM171.599 117.864L148.162 204.938H140.491L163.929 117.864H171.599ZM181.534 194V139.455H189.63V147.977H190.341C191.477 145.065 193.312 142.804 195.845 141.195C198.378 139.561 201.42 138.744 204.971 138.744C208.57 138.744 211.565 139.561 213.956 141.195C216.37 142.804 218.252 145.065 219.602 147.977H220.17C221.567 145.16 223.662 142.923 226.456 141.266C229.249 139.585 232.599 138.744 236.505 138.744C241.382 138.744 245.371 140.271 248.473 143.325C251.574 146.356 253.125 151.079 253.125 157.494V194H244.744V157.494C244.744 153.47 243.643 150.593 241.441 148.865C239.24 147.137 236.647 146.273 233.664 146.273C229.829 146.273 226.858 147.433 224.751 149.753C222.644 152.049 221.591 154.961 221.591 158.489V194H213.068V156.642C213.068 153.541 212.062 151.043 210.049 149.149C208.037 147.232 205.445 146.273 202.272 146.273C200.094 146.273 198.058 146.853 196.164 148.013C194.294 149.173 192.779 150.783 191.619 152.842C190.483 154.878 189.914 157.234 189.914 159.909V194H181.534ZM268.448 194V139.455H276.544V147.977H277.255C278.391 145.065 280.226 142.804 282.759 141.195C285.292 139.561 288.334 138.744 291.885 138.744C295.484 138.744 298.479 139.561 300.87 141.195C303.284 142.804 305.167 145.065 306.516 147.977H307.084C308.481 145.16 310.576 142.923 313.37 141.266C316.163 139.585 319.513 138.744 323.419 138.744C328.296 138.744 332.285 140.271 335.387 143.325C338.488 146.356 340.039 151.079 340.039 157.494V194H331.658V157.494C331.658 153.47 330.557 150.593 328.355 148.865C326.154 147.137 323.561 146.273 320.578 146.273C316.743 146.273 313.772 147.433 311.665 149.753C309.558 152.049 308.505 154.961 308.505 158.489V194H299.982V156.642C299.982 153.541 298.976 151.043 296.963 149.149C294.951 147.232 292.359 146.273 289.186 146.273C287.008 146.273 284.972 146.853 283.078 148.013C281.208 149.173 279.693 150.783 278.533 152.842C277.397 154.878 276.828 157.234 276.828 159.909V194H268.448ZM381.072 117.864L357.635 204.938H349.964L373.402 117.864H381.072ZM396.404 214.455C394.984 214.455 393.717 214.336 392.604 214.099C391.492 213.886 390.722 213.673 390.296 213.46L392.427 206.074C394.463 206.595 396.262 206.784 397.825 206.642C399.387 206.5 400.772 205.802 401.979 204.547C403.21 203.316 404.335 201.315 405.353 198.545L406.915 194.284L386.745 139.455H395.836L410.893 182.92H411.461L426.518 139.455H435.609L412.455 201.955C411.414 204.772 410.123 207.104 408.585 208.95C407.046 210.821 405.258 212.205 403.222 213.105C401.21 214.005 398.937 214.455 396.404 214.455ZM452.068 214.455C450.648 214.455 449.381 214.336 448.268 214.099C447.156 213.886 446.386 213.673 445.96 213.46L448.091 206.074C450.127 206.595 451.926 206.784 453.489 206.642C455.051 206.5 456.436 205.802 457.643 204.547C458.875 203.316 459.999 201.315 461.017 198.545L462.58 194.284L442.409 139.455H451.5L466.557 182.92H467.125L482.182 139.455H491.273L468.119 201.955C467.078 204.772 465.787 207.104 464.249 208.95C462.71 210.821 460.922 212.205 458.886 213.105C456.874 214.005 454.601 214.455 452.068 214.455ZM507.732 214.455C506.312 214.455 505.045 214.336 503.933 214.099C502.82 213.886 502.05 213.673 501.624 213.46L503.755 206.074C505.791 206.595 507.59 206.784 509.153 206.642C510.715 206.5 512.1 205.802 513.308 204.547C514.539 203.316 515.663 201.315 516.681 198.545L518.244 194.284L498.073 139.455H507.164L522.221 182.92H522.789L537.846 139.455H546.937L523.783 201.955C522.742 204.772 521.451 207.104 519.913 208.95C518.374 210.821 516.586 212.205 514.55 213.105C512.538 214.005 510.265 214.455 507.732 214.455ZM563.396 214.455C561.976 214.455 560.709 214.336 559.597 214.099C558.484 213.886 557.714 213.673 557.288 213.46L559.419 206.074C561.455 206.595 563.254 206.784 564.817 206.642C566.379 206.5 567.764 205.802 568.972 204.547C570.203 203.316 571.327 201.315 572.345 198.545L573.908 194.284L553.737 139.455H562.828L577.885 182.92H578.453L593.51 139.455H602.601L579.447 201.955C578.406 204.772 577.116 207.104 575.577 208.95C574.038 210.821 572.25 212.205 570.214 213.105C568.202 214.005 565.929 214.455 563.396 214.455Z" fill="#737370"/>
<path d="M13.0682 579.455C11.6477 579.455 10.3812 579.336 9.26847 579.099C8.15578 578.886 7.38636 578.673 6.96023 578.46L9.09091 571.074C11.1269 571.595 12.9261 571.784 14.4886 571.642C16.0511 571.5 17.4361 570.802 18.6435 569.547C19.8745 568.316 20.9991 566.315 22.017 563.545L23.5795 559.284L3.40909 504.455H12.5L27.5568 547.92H28.125L43.1818 504.455H52.2727L29.1193 566.955C28.0777 569.772 26.7874 572.104 25.2486 573.95C23.7098 575.821 21.9223 577.205 19.8864 578.105C17.8741 579.005 15.6013 579.455 13.0682 579.455ZM68.7322 579.455C67.3118 579.455 66.0452 579.336 64.9325 579.099C63.8198 578.886 63.0504 578.673 62.6243 578.46L64.755 571.074C66.791 571.595 68.5902 571.784 70.1527 571.642C71.7152 571.5 73.1001 570.802 74.3075 569.547C75.5386 568.316 76.6631 566.315 77.6811 563.545L79.2436 559.284L59.0732 504.455H68.1641L83.2209 547.92H83.7891L98.8459 504.455H107.937L84.7834 566.955C83.7417 569.772 82.4515 572.104 80.9126 573.95C79.3738 575.821 77.5864 577.205 75.5504 578.105C73.5381 579.005 71.2654 579.455 68.7322 579.455ZM124.396 579.455C122.976 579.455 121.709 579.336 120.597 579.099C119.484 578.886 118.714 578.673 118.288 578.46L120.419 571.074C122.455 571.595 124.254 571.784 125.817 571.642C127.379 571.5 128.764 570.802 129.972 569.547C131.203 568.316 132.327 566.315 133.345 563.545L134.908 559.284L114.737 504.455H123.828L138.885 547.92H139.453L154.51 504.455H163.601L140.447 566.955C139.406 569.772 138.116 572.104 136.577 573.95C135.038 575.821 133.25 577.205 131.214 578.105C129.202 579.005 126.929 579.455 124.396 579.455ZM180.06 579.455C178.64 579.455 177.373 579.336 176.261 579.099C175.148 578.886 174.379 578.673 173.952 578.46L176.083 571.074C178.119 571.595 179.918 571.784 181.481 571.642C183.043 571.5 184.428 570.802 185.636 569.547C186.867 568.316 187.991 566.315 189.009 563.545L190.572 559.284L170.401 504.455H179.492L194.549 547.92H195.117L210.174 504.455H219.265L196.112 566.955C195.07 569.772 193.78 572.104 192.241 573.95C190.702 575.821 188.915 577.205 186.879 578.105C184.866 579.005 182.594 579.455 180.06 579.455ZM261.577 523.915V531.727H229.759V523.915H261.577ZM276.323 559V504.455H284.419V512.977H285.13C286.266 510.065 288.101 507.804 290.634 506.195C293.167 504.561 296.209 503.744 299.76 503.744C303.359 503.744 306.354 504.561 308.745 506.195C311.159 507.804 313.042 510.065 314.391 512.977H314.959C316.356 510.16 318.451 507.923 321.245 506.266C324.038 504.585 327.388 503.744 331.294 503.744C336.171 503.744 340.16 505.271 343.262 508.325C346.363 511.356 347.914 516.079 347.914 522.494V559H339.533V522.494C339.533 518.47 338.432 515.593 336.23 513.865C334.029 512.137 331.436 511.273 328.453 511.273C324.618 511.273 321.647 512.433 319.54 514.753C317.433 517.049 316.38 519.961 316.38 523.489V559H307.857V521.642C307.857 518.541 306.851 516.043 304.838 514.149C302.826 512.232 300.234 511.273 297.061 511.273C294.883 511.273 292.847 511.853 290.953 513.013C289.083 514.173 287.568 515.783 286.408 517.842C285.272 519.878 284.703 522.234 284.703 524.909V559H276.323ZM363.237 559V504.455H371.333V512.977H372.044C373.18 510.065 375.015 507.804 377.548 506.195C380.081 504.561 383.123 503.744 386.674 503.744C390.273 503.744 393.268 504.561 395.659 506.195C398.074 507.804 399.956 510.065 401.305 512.977H401.873C403.27 510.16 405.365 507.923 408.159 506.266C410.952 504.585 414.302 503.744 418.208 503.744C423.085 503.744 427.074 505.271 430.176 508.325C433.277 511.356 434.828 516.079 434.828 522.494V559H426.447V522.494C426.447 518.47 425.346 515.593 423.145 513.865C420.943 512.137 418.35 511.273 415.368 511.273C411.532 511.273 408.561 512.433 406.454 514.753C404.347 517.049 403.294 519.961 403.294 523.489V559H394.771V521.642C394.771 518.541 393.765 516.043 391.752 514.149C389.74 512.232 387.148 511.273 383.975 511.273C381.797 511.273 379.761 511.853 377.868 513.013C375.997 514.173 374.482 515.783 373.322 517.842C372.186 519.878 371.618 522.234 371.618 524.909V559H363.237ZM481.401 523.915V531.727H449.583V523.915H481.401ZM516.744 560.136C512.198 560.136 508.185 558.988 504.705 556.692C501.225 554.372 498.503 551.105 496.538 546.891C494.573 542.653 493.59 537.646 493.59 531.869C493.59 526.14 494.573 521.169 496.538 516.955C498.503 512.741 501.237 509.485 504.741 507.189C508.245 504.893 512.293 503.744 516.886 503.744C520.437 503.744 523.242 504.336 525.302 505.52C527.385 506.68 528.971 508.006 530.06 509.497C531.173 510.965 532.037 512.172 532.653 513.119H533.363V486.273H541.744V559H533.647V550.619H532.653C532.037 551.614 531.161 552.868 530.025 554.384C528.888 555.875 527.267 557.213 525.16 558.396C523.053 559.556 520.247 560.136 516.744 560.136ZM517.88 552.608C521.242 552.608 524.083 551.732 526.403 549.98C528.723 548.205 530.487 545.754 531.694 542.629C532.901 539.481 533.505 535.847 533.505 531.727C533.505 527.655 532.913 524.092 531.729 521.038C530.546 517.961 528.794 515.57 526.474 513.865C524.154 512.137 521.289 511.273 517.88 511.273C514.329 511.273 511.37 512.184 509.002 514.007C506.658 515.806 504.895 518.257 503.711 521.358C502.551 524.436 501.971 527.892 501.971 531.727C501.971 535.61 502.563 539.137 503.746 542.31C504.954 545.458 506.729 547.968 509.073 549.838C511.441 551.685 514.376 552.608 517.88 552.608ZM578.853 560.136C574.308 560.136 570.295 558.988 566.815 556.692C563.335 554.372 560.612 551.105 558.647 546.891C556.682 542.653 555.7 537.646 555.7 531.869C555.7 526.14 556.682 521.169 558.647 516.955C560.612 512.741 563.346 509.485 566.85 507.189C570.354 504.893 574.402 503.744 578.995 503.744C582.546 503.744 585.352 504.336 587.411 505.52C589.495 506.68 591.081 508.006 592.17 509.497C593.282 510.965 594.147 512.172 594.762 513.119H595.472V486.273H603.853V559H595.756V550.619H594.762C594.147 551.614 593.271 552.868 592.134 554.384C590.998 555.875 589.376 557.213 587.269 558.396C585.162 559.556 582.357 560.136 578.853 560.136ZM579.989 552.608C583.351 552.608 586.192 551.732 588.512 549.98C590.832 548.205 592.596 545.754 593.803 542.629C595.011 539.481 595.614 535.847 595.614 531.727C595.614 527.655 595.022 524.092 593.839 521.038C592.655 517.961 590.903 515.57 588.583 513.865C586.263 512.137 583.398 511.273 579.989 511.273C576.438 511.273 573.479 512.184 571.112 514.007C568.768 515.806 567.004 518.257 565.82 521.358C564.66 524.436 564.08 527.892 564.08 531.727C564.08 535.61 564.672 539.137 565.856 542.31C567.063 545.458 568.839 547.968 571.183 549.838C573.55 551.685 576.486 552.608 579.989 552.608Z" fill="#737370"/>
<path d="M51.8949 680V668.92L77.7827 644.95C79.9844 642.82 81.831 640.902 83.3224 639.197C84.8376 637.493 85.9858 635.824 86.767 634.19C87.5483 632.533 87.9389 630.746 87.9389 628.828C87.9389 626.697 87.4536 624.863 86.483 623.324C85.5123 621.761 84.1866 620.566 82.5057 619.737C80.8248 618.885 78.919 618.459 76.7884 618.459C74.563 618.459 72.6217 618.909 70.9645 619.808C69.3073 620.708 68.0289 621.998 67.1293 623.679C66.2296 625.36 65.7798 627.36 65.7798 629.68H51.1847C51.1847 624.922 52.2618 620.791 54.4162 617.287C56.5705 613.783 59.589 611.072 63.4716 609.155C67.3542 607.237 71.8286 606.278 76.8949 606.278C82.1032 606.278 86.6368 607.202 90.4957 609.048C94.3783 610.871 97.3968 613.404 99.5511 616.648C101.705 619.891 102.783 623.608 102.783 627.798C102.783 630.545 102.238 633.255 101.149 635.93C100.084 638.606 98.178 641.577 95.4318 644.844C92.6856 648.087 88.8149 651.982 83.8196 656.527L73.2017 666.932V667.429H103.741V680H51.8949ZM143.399 681.598C137.291 681.574 132.035 680.071 127.632 677.088C123.252 674.105 119.878 669.785 117.511 664.126C115.167 658.468 114.007 651.662 114.031 643.707C114.031 635.777 115.203 629.018 117.547 623.43C119.914 617.843 123.288 613.594 127.667 610.682C132.071 607.746 137.315 606.278 143.399 606.278C149.483 606.278 154.715 607.746 159.095 610.682C163.498 613.617 166.884 617.879 169.251 623.466C171.618 629.029 172.79 635.777 172.767 643.707C172.767 651.686 171.583 658.504 169.216 664.162C166.872 669.82 163.51 674.141 159.13 677.124C154.751 680.107 149.507 681.598 143.399 681.598ZM143.399 668.849C147.565 668.849 150.892 666.754 153.377 662.564C155.863 658.374 157.094 652.088 157.071 643.707C157.071 638.191 156.502 633.598 155.366 629.929C154.253 626.259 152.667 623.501 150.608 621.655C148.572 619.808 146.169 618.885 143.399 618.885C139.256 618.885 135.941 620.956 133.456 625.099C130.97 629.242 129.715 635.445 129.691 643.707C129.691 649.295 130.248 653.958 131.36 657.699C132.497 661.416 134.095 664.209 136.154 666.08C138.214 667.926 140.629 668.849 143.399 668.849ZM183.731 680V668.92L209.619 644.95C211.82 642.82 213.667 640.902 215.158 639.197C216.674 637.493 217.822 635.824 218.603 634.19C219.384 632.533 219.775 630.746 219.775 628.828C219.775 626.697 219.29 624.863 218.319 623.324C217.348 621.761 216.022 620.566 214.342 619.737C212.661 618.885 210.755 618.459 208.624 618.459C206.399 618.459 204.458 618.909 202.8 619.808C201.143 620.708 199.865 621.998 198.965 623.679C198.066 625.36 197.616 627.36 197.616 629.68H183.021C183.021 624.922 184.098 620.791 186.252 617.287C188.406 613.783 191.425 611.072 195.308 609.155C199.19 607.237 203.665 606.278 208.731 606.278C213.939 606.278 218.473 607.202 222.332 609.048C226.214 610.871 229.233 613.404 231.387 616.648C233.541 619.891 234.619 623.608 234.619 627.798C234.619 630.545 234.074 633.255 232.985 635.93C231.92 638.606 230.014 641.577 227.268 644.844C224.522 648.087 220.651 651.982 215.656 656.527L205.038 666.932V667.429H235.577V680H183.731ZM278.36 607.273V680H262.983V621.868H262.557L245.902 632.308V618.672L263.907 607.273H278.36ZM329.771 637.635V649.638H296.604V637.635H329.771ZM374.161 607.273V680H358.784V621.868H358.358L341.703 632.308V618.672L359.707 607.273H374.161ZM391.446 680V668.92L417.333 644.95C419.535 642.82 421.382 640.902 422.873 639.197C424.388 637.493 425.537 635.824 426.318 634.19C427.099 632.533 427.49 630.746 427.49 628.828C427.49 626.697 427.004 624.863 426.034 623.324C425.063 621.761 423.737 620.566 422.056 619.737C420.376 618.885 418.47 618.459 416.339 618.459C414.114 618.459 412.172 618.909 410.515 619.808C408.858 620.708 407.58 621.998 406.68 623.679C405.78 625.36 405.331 627.36 405.331 629.68H390.735C390.735 624.922 391.813 620.791 393.967 617.287C396.121 613.783 399.14 611.072 403.022 609.155C406.905 607.237 411.379 606.278 416.446 606.278C421.654 606.278 426.188 607.202 430.047 609.048C433.929 610.871 436.948 613.404 439.102 616.648C441.256 619.891 442.333 623.608 442.333 627.798C442.333 630.545 441.789 633.255 440.7 635.93C439.635 638.606 437.729 641.577 434.983 644.844C432.236 648.087 428.366 651.982 423.37 656.527L412.752 666.932V667.429H443.292V680H391.446ZM488.56 637.635V649.638H455.393V637.635H488.56ZM499.258 680V668.92L525.146 644.95C527.348 642.82 529.194 640.902 530.686 639.197C532.201 637.493 533.349 635.824 534.13 634.19C534.912 632.533 535.302 630.746 535.302 628.828C535.302 626.697 534.817 624.863 533.846 623.324C532.876 621.761 531.55 620.566 529.869 619.737C528.188 618.885 526.282 618.459 524.152 618.459C521.926 618.459 519.985 618.909 518.328 619.808C516.671 620.708 515.392 621.998 514.493 623.679C513.593 625.36 513.143 627.36 513.143 629.68H498.548C498.548 624.922 499.625 620.791 501.779 617.287C503.934 613.783 506.952 611.072 510.835 609.155C514.717 607.237 519.192 606.278 524.258 606.278C529.467 606.278 534 607.202 537.859 609.048C541.742 610.871 544.76 613.404 546.914 616.648C549.069 619.891 550.146 623.608 550.146 627.798C550.146 630.545 549.601 633.255 548.512 635.93C547.447 638.606 545.541 641.577 542.795 644.844C540.049 648.087 536.178 651.982 531.183 656.527L520.565 666.932V667.429H551.105V680H499.258ZM588.809 680.994C583.79 680.994 579.316 680.071 575.386 678.224C571.479 676.378 568.378 673.833 566.082 670.589C563.785 667.346 562.59 663.629 562.495 659.439H577.41C577.576 662.256 578.759 664.541 580.961 666.293C583.163 668.045 585.779 668.92 588.809 668.92C591.224 668.92 593.354 668.388 595.201 667.322C597.071 666.233 598.527 664.73 599.569 662.812C600.634 660.871 601.167 658.646 601.167 656.136C601.167 653.58 600.622 651.33 599.533 649.389C598.468 647.448 596.988 645.933 595.094 644.844C593.201 643.755 591.034 643.198 588.596 643.175C586.465 643.175 584.394 643.613 582.381 644.489C580.393 645.365 578.842 646.56 577.729 648.075L564.058 645.625L567.502 607.273H611.962V619.844H580.18L578.298 638.061H578.724C580.002 636.262 581.932 634.77 584.512 633.587C587.093 632.403 589.981 631.811 593.177 631.811C597.557 631.811 601.463 632.841 604.896 634.901C608.328 636.96 611.039 639.789 613.028 643.388C615.016 646.963 615.999 651.082 615.975 655.746C615.999 660.646 614.862 665.002 612.566 668.814C610.293 672.602 607.109 675.585 603.013 677.763C598.942 679.917 594.207 680.994 588.809 680.994Z" fill="#FA8F00"/>
</svg>
